<svg version="1.1" xmlns="http://www.w3.org/2000/svg" xmlns:xlink="http://www.w3.org/1999/xlink" x="0px" y="0px" width="380px" height="798px" viewBox="0 0 380 798" enable-background="new 0 0 380 798" xml:space="preserve">
  <path fill="#FFFFFF" d="M330,798H50c-27.614,0-50-22.386-50-50V50C0,22.386,22.386,0,50,0h280c27.614,0,50,22.386,50,50v698 C380,775.614,357.614,798,330,798z"/>
  <path fill="#E8E8E8" d="M330,798H50c-27.614,0-50-22.386-50-50V50C0,22.386,22.386,0,50,0h280c27.614,0,50,22.386,50,50v698 C380,775.614,357.614,798,330,798z M190,776c19.33,0,35-15.67,35-35s-15.67-35-35-35s-35,15.67-35,35S170.67,776,190,776z M228,67.5 c0-4.694-3.806-8.5-8.5-8.5h-59c-4.694,0-8.5,3.806-8.5,8.5v1c0,4.694,3.806,8.5,8.5,8.5h59c4.694,0,8.5-3.806,8.5-8.5V67.5z M350,115H30v568h320V115z"/>
</svg>
