<svg version="1.1" xmlns="http://www.w3.org/2000/svg" xmlns:xlink="http://www.w3.org/1999/xlink" x="0px" y="0px" width="798px" height="380px" viewBox="0 0 798 380" enable-background="new 0 0 798 380" xml:space="preserve">
  <path fill="#FFFFFF" d="M798,50v280c0,27.614-22.386,50-50,50H50 c-27.614,0-50-22.386-50-50V50C0,22.386,22.386,0,50,0h698C775.614,0,798,22.386,798,50z"/>
  <path fill="#E8E8E8" d="M798,50v280c0,27.614-22.386,50-50,50H50 c-27.614,0-50-22.386-50-50V50C0,22.386,22.386,0,50,0h698C775.614,0,798,22.386,798,50z M776,190c0-19.33-15.67-35-35-35 c-19.33,0-35,15.67-35,35c0,19.33,15.67,35,35,35C760.33,225,776,209.33,776,190z M67.5,152c-4.694,0-8.5,3.806-8.5,8.5v59 c0,4.694,3.806,8.5,8.5,8.5h1c4.694,0,8.5-3.806,8.5-8.5v-59c0-4.694-3.805-8.5-8.5-8.5H67.5z M115,30v320h568V30H115z"/>
</svg>
